# xmcd CD database file
#
# Track frame offsets:
#	150
#	13054
#	31651
#	47761
#	66266
#	83804
#	101278
#	115748
#	134175
#	153606
#	167760
#	182223
#
# Disc length: 2627 seconds
#
# Revision: 2
# Processed by: cddbd v1.5.2PL0 Copyright (c) Steve Scherf et al.
# Submitted via: CDex 1.70beta2
#
DISCID=9d0a410c
DTITLE=Guren Hagen - Takke meg tel
DYEAR=2009
DGENRE=Folk Pop
TTITLE0=Gi meg dengong
TTITLE1=Nå der det deg
TTITLE2=Sammarsmårrå
TTITLE3=Vakre du
TTITLE4=Alene her
TTITLE5=Smiesang
TTITLE6=Takke meg tel
TTITLE7=På tide
TTITLE8=Gud gi
TTITLE9=Hysj
TTITLE10=Siste biten sjøl
TTITLE11=Er du der
EXTD=YEAR: 2009
EXTT0=
EXTT1=
EXTT2=
EXTT3=
EXTT4=
EXTT5=
EXTT6=
EXTT7=
EXTT8=
EXTT9=
EXTT10=
EXTT11=
PLAYORDER=
